<?xml version="1.0" standalone="no"?>
<!DOCTYPE svg PUBLIC "-//W3C//DTD SVG 20010904//EN"
 "http://www.w3.org/TR/2001/REC-SVG-20010904/DTD/svg10.dtd">
<svg version="1.0" xmlns="http://www.w3.org/2000/svg"
 width="886.000000pt" height="259.000000pt" viewBox="0 0 886.000000 259.000000"
 preserveAspectRatio="xMidYMid meet">

<g transform="translate(0.000000,259.000000) scale(0.100000,-0.100000)"
fill="#000000" stroke="none">
<path d="M1098 2463 c-8 -10 -34 -54 -58 -98 -23 -44 -55 -102 -70 -130 -330
-603 -500 -933 -534 -1039 -45 -138 -31 -213 65 -341 91 -122 102 -147 107
-247 4 -83 3 -88 -16 -88 -11 0 -26 -2 -34 -5 -10 -4 -12 5 -10 40 2 25 2 45
-2 45 -3 0 -22 -11 -42 -25 -20 -14 -42 -25 -48 -25 -6 1 5 9 25 20 19 10 42
26 49 35 12 15 11 19 -10 35 -29 22 -63 33 -54 18 10 -15 -55 24 -69 42 -11
13 -10 13 8 0 11 -8 4 4 -15 25 -19 22 -36 41 -36 43 -1 1 -4 -4 -8 -13 -3 -9
-2 -14 3 -11 4 3 16 -3 26 -14 20 -22 7 -28 -14 -7 -7 6 -3 -9 10 -35 19 -39
21 -51 11 -73 -15 -32 -39 -32 -73 1 l-28 27 6 -24 c6 -24 39 -73 69 -104 13
-12 19 -13 24 -4 6 9 15 5 33 -14 13 -15 33 -27 43 -28 11 0 13 -3 7 -6 -7 -2
-13 -9 -13 -14 0 -4 7 -6 15 -3 8 4 15 2 15 -4 0 -6 -6 -12 -12 -15 -10 -3
-10 -7 -1 -19 11 -12 9 -17 -13 -26 -40 -19 -62 -14 -78 16 -11 20 -15 22 -16
9 -1 -43 79 -87 158 -87 27 0 32 -4 32 -23 0 -26 28 -57 51 -57 8 0 3 6 -11
13 -23 12 -25 19 -28 91 -3 89 3 99 58 91 25 -4 20 0 -20 13 -59 20 -57 23 25
37 78 14 84 14 78 -2 -5 -13 -2 -13 15 -4 18 10 21 9 16 -4 -4 -8 -13 -15 -21
-15 -9 0 -13 -8 -11 -23 2 -17 10 -23 38 -25 30 -2 32 -1 17 9 -17 10 -16 13
13 30 17 11 36 32 41 48 12 34 49 50 49 21 0 -29 -19 -73 -42 -98 l-21 -22 20
0 c12 0 23 6 26 14 4 10 20 15 46 14 33 0 41 -4 41 -19 0 -16 8 -19 50 -19 28
0 50 5 50 10 0 6 -7 10 -15 10 -8 0 -15 4 -15 8 0 5 23 9 51 9 38 1 49 -2 46
-12 -6 -15 33 -25 95 -25 31 0 41 4 45 19 3 12 14 19 29 19 28 0 32 -14 7 -21
-14 -4 -12 -5 5 -6 13 -1 22 5 22 14 0 8 7 15 16 15 10 0 14 -6 10 -15 -3 -8
-1 -15 4 -15 6 0 10 7 10 15 0 17 35 21 45 5 3 -5 23 -9 43 -9 36 1 36 2 7 8
-32 6 -65 56 -65 98 0 29 38 19 46 -12 3 -13 14 -31 24 -40 18 -16 19 -16 17
3 0 11 -4 19 -8 16 -4 -2 -11 1 -15 7 -4 8 -3 9 4 5 7 -4 12 -3 12 2 0 5 23 3
53 -4 28 -7 66 -16 82 -20 l30 -7 -29 -12 c-27 -11 -27 -12 -7 -18 19 -5 21
-13 22 -89 1 -45 4 -71 6 -55 4 24 9 27 41 27 76 1 146 40 155 86 5 28 -1 25
-17 -8 -14 -28 -54 -34 -81 -14 -17 13 -18 17 -5 25 12 9 12 11 -3 17 -9 3
-14 10 -11 15 3 5 10 7 15 4 5 -4 9 -2 9 4 0 5 -6 12 -12 14 -8 3 -6 6 5 6 10
1 30 12 45 26 19 18 28 21 34 12 17 -25 117 126 104 157 -2 6 -5 4 -5 -5 -1
-21 -53 -69 -74 -69 -10 0 -23 12 -29 26 -11 23 -9 33 16 77 35 63 22 80 -25
30 -18 -20 -25 -31 -14 -23 11 8 28 23 37 35 10 11 18 15 18 8 0 -12 -36 -42
-95 -79 -17 -11 -26 -13 -21 -6 5 8 -9 5 -34 -8 l-42 -21 7 33 c12 57 30 91
89 168 80 104 98 143 104 221 5 72 -13 142 -69 266 -63 141 -610 1155 -626
1160 -5 2 -16 -4 -25 -14z m2 -98 c0 -8 -4 -15 -10 -15 -5 0 -7 7 -4 15 4 8 8
15 10 15 2 0 4 -7 4 -15z m43 0 c4 -8 2 -17 -3 -20 -6 -4 -10 3 -10 14 0 25 6
27 13 6z m-52 -52 c13 -16 12 -17 -3 -4 -17 13 -22 21 -14 21 2 0 10 -8 17
-17z m69 13 c0 -2 -8 -10 -17 -17 -16 -13 -17 -12 -4 4 13 16 21 21 21 13z
m-93 -40 c-3 -8 2 -16 14 -19 15 -4 19 -14 19 -46 0 -38 -2 -41 -19 -31 -28
15 -35 29 -21 45 7 8 8 15 3 15 -13 0 -33 -22 -33 -37 0 -7 -9 -22 -20 -33
-11 -11 -20 -26 -20 -32 0 -8 7 -5 15 6 9 12 15 15 15 7 0 -11 3 -11 15 -1 12
10 21 10 40 2 23 -10 25 -18 25 -71 l0 -59 -30 14 c-30 16 -42 55 -20 69 6 3
10 -4 10 -17 0 -20 2 -21 15 -7 19 19 10 49 -14 49 -26 0 -41 -21 -41 -57 0
-35 -8 -41 -28 -21 -16 16 -15 45 1 52 6 3 3 5 -8 3 -27 -3 -32 -49 -8 -73 10
-9 18 -31 18 -48 0 -26 4 -31 25 -33 14 -1 18 0 8 3 -22 7 -23 28 -2 48 20 21
23 20 51 -6 16 -15 23 -33 23 -59 0 -32 -4 -38 -31 -49 -21 -9 -39 -10 -57 -4
-31 11 -42 35 -12 27 16 -4 19 -2 14 11 -3 9 -15 16 -25 16 -13 0 -19 7 -19
24 0 13 -6 37 -13 54 l-13 31 -22 -33 c-13 -19 -20 -40 -16 -50 9 -23 24 -20
25 7 1 12 6 2 11 -23 5 -25 20 -56 31 -68 19 -21 29 -23 75 -20 48 4 52 3 52
-17 0 -31 -8 -35 -44 -20 -18 8 -43 11 -54 8 -37 -9 -72 22 -72 65 -1 31 -2
34 -11 19 -6 -11 -9 -32 -7 -48 6 -40 -18 -19 -28 24 -6 30 -7 31 -15 10 -5
-13 -13 -23 -19 -23 -5 0 -10 -5 -10 -10 0 -6 5 -9 11 -8 6 2 22 -12 36 -29
l25 -32 -25 -12 c-32 -15 -57 -6 -57 20 0 15 5 19 17 14 11 -4 14 -3 9 5 -11
19 -34 14 -41 -8 -3 -11 -11 -20 -16 -20 -5 0 -9 -5 -9 -11 0 -5 4 -8 9 -5 5
3 14 -1 21 -8 9 -12 7 -19 -9 -35 -36 -36 -23 -43 22 -13 58 40 107 64 107 53
0 -5 3 -16 6 -25 4 -11 1 -16 -11 -16 -11 0 -15 5 -11 15 3 8 1 15 -5 15 -26
0 0 -33 36 -46 50 -17 53 -17 32 -1 -18 13 -34 67 -20 67 4 0 14 -9 20 -19 7
-11 22 -21 34 -23 26 -4 38 -28 15 -28 -10 0 -16 -8 -16 -21 0 -14 5 -19 18
-17 20 4 31 68 12 68 -7 0 -10 7 -7 15 8 19 -11 31 -26 16 -17 -17 -27 -13
-27 9 0 23 37 27 73 9 31 -17 33 -23 29 -69 -3 -32 -10 -44 -31 -55 -36 -18
-59 -45 -39 -45 8 0 19 5 26 12 9 9 12 8 12 -5 0 -9 -5 -17 -11 -17 -18 0 -41
-30 -35 -45 7 -18 27 -20 24 -2 -2 6 5 11 14 11 10 -1 14 4 11 12 -3 8 0 14 6
14 7 0 14 -7 17 -15 5 -11 10 -13 19 -5 10 8 15 8 20 0 5 -7 11 -5 20 7 7 10
17 14 22 10 14 -15 -26 -35 -62 -31 -22 2 -41 -4 -56 -17 -18 -15 -25 -17 -32
-7 -7 10 -10 10 -14 1 -5 -15 -43 -18 -43 -4 0 5 -3 16 -6 25 -3 9 -1 16 5 16
6 0 12 -10 12 -22 1 -18 2 -19 6 -5 2 9 9 15 14 12 15 -10 10 22 -6 39 -19 19
-19 40 0 60 11 10 12 17 4 22 -7 4 -16 -1 -21 -10 -8 -15 -12 -14 -30 9 -11
14 -24 22 -30 19 -7 -4 -8 -2 -4 4 9 15 -28 16 -54 2 -33 -18 -42 -45 -27 -87
13 -40 12 -77 -4 -68 -5 4 -9 20 -9 36 0 61 -40 90 -71 52 -13 -15 -12 -15 9
-4 28 15 42 7 42 -25 0 -18 -5 -24 -23 -24 -44 0 -67 -57 -28 -67 24 -6 47
-53 26 -53 -29 0 -65 24 -75 49 l-10 26 3 -27 c3 -19 -2 -29 -17 -36 -21 -11
-21 -11 1 -11 30 -1 113 -24 113 -31 0 -12 -59 -40 -65 -31 -3 6 -14 2 -25 -9
-29 -29 -60 -26 -60 4 0 26 16 43 28 31 4 -4 1 -10 -6 -12 -6 -3 -10 -9 -7
-13 9 -15 35 1 35 21 0 10 -2 19 -4 19 -2 0 -11 3 -20 6 -10 4 -22 -5 -34 -26
-12 -18 -23 -27 -26 -21 -4 6 12 47 36 91 34 62 49 81 70 85 15 4 32 13 39 21
11 13 9 14 -14 3 -15 -7 -30 -10 -33 -7 -8 9 23 65 39 71 8 3 24 22 36 42 18
31 19 36 5 31 -13 -5 -11 3 9 36 13 24 79 145 147 271 67 125 127 227 132 227
6 0 8 -6 5 -14z m200 -146 c169 -309 205 -380 188 -374 -13 5 -12 -1 6 -31 12
-20 28 -39 36 -42 15 -6 47 -62 39 -70 -7 -8 -46 7 -46 18 0 5 5 9 12 9 19 0
-25 29 -44 30 -22 0 -38 -30 -38 -69 0 -16 -4 -32 -9 -35 -15 -10 -19 30 -5
55 21 37 17 66 -13 89 -29 23 -80 24 -75 2 1 -8 -2 -11 -7 -7 -6 3 -15 -4 -22
-17 -11 -21 -12 -21 -25 -3 -11 15 -17 16 -26 7 -7 -7 -8 -12 -2 -12 6 0 16
-11 22 -24 9 -20 7 -27 -9 -42 -19 -17 -27 -50 -10 -39 5 3 12 -3 14 -12 4
-14 5 -13 6 5 0 12 4 22 9 22 4 0 12 -10 17 -22 6 -13 20 -24 33 -26 23 -4 23
-3 7 22 -10 14 -13 26 -8 26 5 0 16 -11 23 -25 7 -14 22 -25 32 -25 11 0 16 5
13 10 -4 6 -10 8 -15 5 -4 -3 -13 2 -20 10 -9 10 -9 15 -1 15 6 0 11 -6 11
-12 0 -10 3 -9 9 1 7 11 11 9 20 -8 10 -17 9 -22 -4 -27 -23 -9 -166 6 -159
17 3 5 0 9 -6 9 -6 0 -8 5 -5 11 4 5 -12 28 -34 50 -41 38 -44 54 -5 24 10 -8
25 -15 33 -15 20 0 -5 27 -41 46 -25 13 -28 20 -28 63 0 42 3 49 25 59 40 18
75 15 75 -6 0 -27 -11 -34 -25 -15 -12 17 -40 9 -29 -8 3 -5 0 -16 -6 -24 -16
-20 -8 -59 13 -63 12 -2 17 3 17 17 0 13 -6 21 -16 21 -23 0 -11 24 14 28 12
2 29 13 37 25 l15 21 0 -21 c0 -33 -11 -53 -28 -53 -8 0 -12 -3 -9 -7 4 -3 17
-1 30 5 12 6 31 12 42 14 20 3 35 38 16 38 -6 0 -8 -7 -5 -15 4 -9 0 -15 -10
-15 -10 0 -16 9 -16 25 0 14 2 25 4 25 13 0 104 -52 124 -70 34 -32 52 -19 19
14 -22 22 -25 31 -16 42 6 7 15 11 20 8 5 -3 9 0 9 5 0 6 -4 11 -9 11 -5 0
-13 9 -16 20 -7 21 -30 27 -40 10 -4 -6 -1 -9 7 -8 7 2 13 -6 13 -17 0 -25
-33 -31 -59 -12 -17 13 -16 15 16 50 24 25 31 38 21 41 -7 3 -13 16 -13 28 -1
14 -7 4 -18 -26 -9 -27 -24 -52 -32 -54 -12 -4 -13 -2 -2 9 16 17 16 64 -1 77
-10 9 -12 4 -9 -22 5 -42 -16 -59 -76 -63 -26 -1 -56 -4 -67 -5 -14 -2 -21 4
-23 18 -3 19 1 20 50 16 46 -3 56 -1 76 20 12 14 26 45 31 69 5 24 9 34 10 22
1 -26 19 -31 27 -8 4 9 -4 31 -17 49 l-23 35 -13 -31 c-7 -17 -13 -41 -13 -54
0 -14 -6 -24 -14 -24 -7 0 -20 -8 -27 -17 -13 -15 -12 -16 9 -11 33 9 23 -14
-12 -27 -45 -15 -80 11 -84 62 -3 35 1 44 21 58 41 27 89 -14 50 -43 -17 -13
-16 -13 7 -10 21 2 25 8 25 34 0 18 8 41 18 52 24 26 19 66 -8 69 -11 2 -14 0
-7 -3 15 -7 16 -36 0 -52 -19 -19 -25 -14 -25 17 0 35 -18 61 -43 61 -23 0
-32 -36 -14 -51 11 -9 14 -7 14 10 0 12 5 19 10 16 16 -10 12 -65 -4 -65 -8 0
-21 -3 -30 -6 -13 -5 -16 3 -16 49 0 66 17 86 56 68 24 -10 26 -10 20 6 -4 11
1 9 14 -7 15 -20 20 -21 20 -8 0 9 -8 23 -18 30 -9 7 -23 25 -29 41 -15 33
-32 36 -26 3 4 -18 -1 -27 -17 -36 -20 -11 -21 -10 -18 32 3 36 6 42 22 40 16
-3 18 -1 8 11 -12 14 -5 30 11 24 5 -1 47 -72 94 -157z m-237 -360 c0 -5 -5
-10 -11 -10 -5 0 -7 5 -4 10 3 6 8 10 11 10 2 0 4 -4 4 -10z m-120 -84 c0 -10
-34 2 -38 13 -3 10 0 10 17 2 11 -7 21 -13 21 -15z m140 20 c0 -3 -4 -8 -10
-11 -5 -3 -10 -1 -10 4 0 6 5 11 10 11 6 0 10 -2 10 -4z m150 -6 c0 -5 -2 -10
-4 -10 -3 0 -8 5 -11 10 -3 6 -1 10 4 10 6 0 11 -4 11 -10z m154 -3 c-3 -8
-12 -14 -21 -14 -13 0 -13 2 3 14 10 7 19 13 21 13 1 0 0 -6 -3 -13z m-224
-46 c0 -26 -18 -37 -26 -17 -3 9 -14 16 -23 17 -12 0 -12 2 4 9 32 14 45 11
45 -9z m354 -12 c-9 -15 14 -37 47 -44 25 -6 36 -20 70 -87 29 -57 37 -84 30
-91 -6 -6 -11 -18 -11 -27 1 -12 3 -12 14 3 21 28 28 4 11 -37 -17 -39 -26
-44 -45 -21 -13 15 -2 21 16 8 5 -5 -2 2 -16 14 -14 13 -29 23 -35 23 -5 0 -3
-5 5 -10 8 -5 11 -10 6 -10 -6 0 -5 -5 2 -12 7 -7 13 -26 13 -43 1 -23 3 -25
6 -8 4 19 8 21 23 13 16 -9 18 -15 9 -37 -5 -15 -7 -39 -4 -54 3 -15 1 -30 -4
-34 -7 -4 -8 0 -4 11 4 12 3 15 -5 10 -8 -5 -10 -2 -6 8 3 9 1 16 -5 16 -6 0
-11 5 -11 11 0 5 5 7 10 4 6 -3 10 1 10 11 0 14 -3 14 -15 4 -13 -11 -21 -9
-48 10 l-32 23 20 -22 20 -23 -30 4 c-23 2 -30 8 -29 24 0 19 -3 20 -27 10
-15 -5 -27 -12 -26 -15 0 -4 -2 -16 -7 -28 -8 -24 -21 -30 -31 -13 -11 18 -26
10 -23 -12 2 -17 11 -24 30 -26 23 -3 31 3 45 32 18 39 25 43 42 23 11 -14 38
-16 58 -4 17 11 46 -48 37 -76 -6 -20 -5 -21 12 -7 18 14 18 14 0 -8 -14 -16
-30 -22 -60 -22 -36 1 -38 2 -21 12 27 16 44 39 45 61 0 24 -34 18 -38 -7 -3
-13 0 -16 10 -11 7 4 4 -2 -7 -13 -21 -21 -43 -26 -107 -24 -33 2 -40 7 -52
36 -8 18 -19 37 -25 41 -21 12 9 35 47 35 43 0 39 5 -10 13 -26 4 -37 2 -35
-6 1 -6 -8 -13 -20 -15 -17 -2 -23 2 -23 15 -1 17 -1 17 -11 1 -5 -10 -15 -18
-21 -18 -6 0 -5 7 3 16 12 15 11 16 -8 10 -19 -6 -23 -2 -29 28 -6 32 -2 39
40 81 l46 46 32 -22 c17 -13 28 -18 25 -12 -4 7 -2 15 4 18 5 4 8 13 5 21 -9
23 31 -2 50 -31 14 -21 23 -25 63 -23 41 1 42 2 10 5 -26 3 -39 11 -47 28 -10
22 -9 23 36 27 26 2 55 2 65 0 22 -6 16 -28 -7 -26 -9 1 -16 -2 -16 -7 0 -15
37 -10 50 6 21 25 -5 45 -58 45 l-45 0 27 25 c14 13 26 34 25 47 l0 23 -10
-24 c-12 -31 -38 -50 -68 -51 -20 0 -21 2 -11 15 7 8 9 23 5 32 -6 16 -8 15
-20 -8 -16 -29 -45 -41 -66 -28 -10 6 -6 11 13 18 15 6 34 24 43 41 9 18 23
30 35 30 22 0 28 -26 8 -33 -7 -2 -10 -8 -6 -12 12 -12 38 3 38 23 0 25 -19
42 -47 42 -25 0 -32 27 -12 47 13 13 42 6 33 -8z m-338 -16 c-3 -17 -26 -32
-26 -16 0 8 20 33 26 33 1 0 1 -8 0 -17z m-231 -20 c-18 -13 -65 -18 -65 -8 0
10 64 34 74 28 5 -4 1 -12 -9 -20z m185 11 c0 -8 -5 -12 -10 -9 -6 4 -8 11 -5
16 9 14 15 11 15 -7z m233 2 c7 2 21 -2 32 -10 20 -15 20 -15 -3 -16 -32 0
-64 18 -55 33 5 8 8 8 10 0 3 -7 10 -10 16 -7z m-387 -48 c9 -29 -4 -38 -58
-38 -28 0 -49 3 -45 6 3 4 24 6 46 6 32 -1 39 2 34 14 -5 13 -7 13 -14 3 -10
-18 -21 -6 -13 14 8 21 43 17 50 -5z m242 11 c-2 -3 3 -13 11 -22 8 -11 9 -17
3 -17 -6 0 -9 -6 -6 -14 3 -8 0 -17 -7 -22 -7 -4 -10 -3 -5 4 3 6 1 14 -5 18
-8 5 -8 8 1 14 8 5 7 11 -4 22 -8 9 -12 18 -9 22 8 8 26 3 21 -5z m126 -28
c-6 -6 -24 19 -24 34 1 6 7 1 15 -9 8 -11 12 -22 9 -25z m-516 -4 c8 -16 25
-33 40 -38 19 -7 23 -12 13 -18 -21 -13 -52 0 -62 26 -5 13 -13 22 -18 19 -12
-8 -34 21 -26 34 11 18 39 6 53 -23z m86 18 c-4 -8 -10 -15 -16 -15 -5 0 -6 6
-2 13 5 8 2 8 -9 -2 -16 -13 -25 -2 -10 12 13 14 42 7 37 -8z m212 -23 c1 -7
0 -8 -3 -2 -2 5 -9 8 -14 4 -5 -3 -9 0 -9 6 0 15 23 7 26 -8z m26 -24 c2 -32
4 -35 21 -26 17 9 37 4 26 -6 -11 -11 -89 -23 -82 -13 4 6 -4 8 -21 5 -28 -6
-36 6 -10 16 8 3 24 1 35 -4 10 -6 19 -8 19 -6 0 3 -12 12 -27 21 l-28 15 28
-4 c24 -4 27 -1 27 21 0 38 9 24 12 -19z m36 30 c-6 -18 -28 -21 -28 -4 0 9 7
16 16 16 9 0 14 -5 12 -12z m-116 -37 c-9 -17 -22 -27 -30 -23 -12 4 -12 2 -1
-16 7 -11 17 -18 23 -15 5 3 6 1 2 -5 -4 -6 2 -17 14 -24 13 -8 20 -23 20 -42
l0 -29 -26 39 c-32 48 -52 64 -78 64 -17 0 -15 -4 12 -20 28 -17 72 -73 72
-91 0 -13 -80 -37 -86 -27 -4 6 -2 8 3 5 17 -11 57 27 50 46 -8 21 -27 22 -53
1 -18 -15 -18 -15 3 -5 30 15 43 14 37 -4 -4 -8 -10 -12 -15 -9 -5 3 -9 0 -9
-6 0 -6 -6 -10 -12 -9 -46 6 -48 -19 -4 -39 16 -7 26 -15 23 -18 -3 -3 -15 -1
-26 5 -15 9 -26 8 -43 -1 -13 -7 -25 -14 -27 -15 -2 -1 4 -9 13 -18 9 -9 17
-14 17 -11 1 3 3 11 4 16 1 6 3 15 4 20 0 6 6 10 12 10 10 0 9 -5 -8 -46 -3
-8 8 -9 36 -4 22 4 38 3 35 -1 -3 -5 0 -9 5 -9 6 0 11 7 11 16 0 13 -7 15 -30
11 -17 -4 -30 -2 -30 3 0 6 7 10 15 10 9 0 19 8 22 18 8 21 23 32 46 32 14 0
17 -9 17 -44 0 -36 -4 -45 -21 -49 -17 -5 -19 -9 -10 -25 15 -27 -15 -52 -62
-52 -29 0 -37 4 -37 18 0 14 -2 14 -9 3 -8 -12 -12 -12 -25 -2 -22 18 -20 37
2 20 14 -11 15 -11 5 1 -19 21 -16 29 10 23 12 -3 31 -17 43 -31 15 -18 26
-23 42 -18 24 8 29 35 10 54 -19 19 -30 14 -18 -9 14 -24 7 -34 -16 -25 -9 3
-14 12 -10 21 4 11 -1 15 -18 15 -29 0 -89 24 -81 32 4 3 1 9 -5 13 -6 4 -9 1
-8 -7 2 -7 -5 -12 -14 -12 -11 1 -14 -4 -11 -13 5 -13 2 -13 -15 -4 -17 9 -22
9 -22 -1 -1 -7 -10 -2 -20 11 -12 14 -20 18 -20 10 -1 -10 -5 -8 -14 4 -13 17
-17 15 -57 -28 -24 -26 -49 -55 -55 -66 -10 -20 -10 -20 -28 0 -18 19 -15 61
4 61 5 0 7 -7 4 -15 -9 -23 20 -18 42 8 10 12 12 17 5 10 -11 -10 -17 -9 -27
5 -11 15 -16 15 -35 4 -18 -12 -23 -12 -30 0 -13 19 -11 30 11 63 22 34 26 65
9 82 -6 6 -8 17 -4 24 6 9 11 8 20 -5 7 -9 26 -18 41 -19 16 -1 35 -9 42 -17
10 -13 12 -13 10 0 -2 8 3 15 10 16 6 1 15 2 18 3 4 0 0 9 -7 18 -12 15 -12
16 4 10 10 -4 32 0 48 8 29 16 30 16 23 -9 -3 -13 -1 -33 5 -44 10 -19 8 -20
-57 -17 -37 2 -72 -1 -79 -7 -7 -5 -16 -7 -20 -5 -12 7 -48 -21 -39 -30 4 -5
13 0 20 9 7 10 16 15 20 11 3 -3 -1 -15 -10 -25 -14 -14 -20 -16 -32 -6 -12
10 -14 9 -11 -7 3 -11 12 -21 22 -23 10 -2 16 0 15 5 -2 4 7 18 20 31 26 26
30 18 5 -11 -10 -11 -12 -17 -5 -13 7 4 12 1 12 -8 0 -25 18 -28 30 -4 11 22
10 22 -4 4 -16 -19 -16 -19 -16 5 0 14 7 34 16 45 8 10 13 12 9 4 -4 -8 1 -6
9 4 11 14 16 15 16 6 0 -11 3 -11 12 -2 17 17 27 15 23 -5 -1 -10 0 -12 2 -5
9 24 23 12 18 -15 -5 -24 -4 -25 4 -7 16 35 33 40 26 7 -5 -25 -4 -25 11 7 17
35 17 35 23 10 7 -24 8 -24 16 10 l8 35 7 -35 c7 -34 7 -34 9 -6 0 16 4 27 7
23 9 -8 33 16 26 27 -3 5 1 7 10 4 8 -4 21 -2 29 3 10 6 2 9 -23 9 -21 0 -38
-4 -38 -9 0 -13 -51 -24 -63 -12 -5 5 -7 21 -3 35 6 23 9 25 26 14 15 -9 25
-10 37 -2 10 6 36 9 58 7 38 -3 38 -2 13 8 -31 12 -36 35 -15 64 11 15 22 17
55 11 26 -4 42 -2 42 4 0 5 -6 10 -12 10 -17 0 12 20 29 20 8 0 7 -9 -5 -29z
m113 -1 c-3 -5 -12 -10 -18 -10 -7 0 -6 4 3 10 19 12 23 12 15 0z m141 -17
c21 -28 17 -52 -11 -59 -18 -5 -25 -13 -25 -31 0 -43 -67 -92 -85 -63 -9 15
24 65 56 84 28 17 58 56 42 56 -4 0 -32 -22 -60 -49 -52 -47 -75 -45 -30 3 36
40 47 55 47 66 0 17 52 11 66 -7z m-410 -38 c-14 -22 -20 -24 -32 -14 -12 10
-10 14 13 29 35 22 40 18 19 -15z m494 -6 c0 -19 -20 -18 -34 3 -23 33 -20 41
9 22 14 -9 25 -20 25 -25z m-230 -19 c0 -11 -4 -20 -9 -20 -6 0 -9 -8 -9 -17
0 -10 -3 -31 -7 -47 -6 -21 -5 -27 4 -22 6 4 11 1 11 -8 0 -10 -9 -16 -25 -16
-19 0 -25 5 -25 23 0 18 2 19 11 7 7 -11 8 -6 4 19 -5 22 -3 36 5 41 9 6 6 10
-9 15 -12 3 -21 15 -21 26 0 15 7 19 35 19 28 0 35 -4 35 -20z m30 10 c0 -5
-5 -10 -11 -10 -5 0 -7 5 -4 10 3 6 8 10 11 10 2 0 4 -4 4 -10z m120 -24 c0
-11 -19 -15 -25 -6 -3 5 1 10 9 10 9 0 16 -2 16 -4z m-730 -68 c0 -7 -9 -26
-20 -43 -11 -16 -20 -39 -20 -50 0 -11 9 -33 20 -50 25 -38 26 -53 1 -31 -10
9 -24 35 -29 58 -9 34 -7 47 11 84 20 43 37 57 37 32z m1130 -34 c16 -39 18
-53 10 -84 -6 -21 -17 -44 -26 -51 -23 -19 -54 -22 -54 -4 0 8 5 15 10 15 7 0
7 7 0 21 -6 11 -9 28 -7 37 3 12 6 9 7 -8 2 -16 5 -8 9 20 6 44 7 44 20 21 10
-18 10 -29 2 -49 -15 -31 -4 -43 15 -18 19 27 18 53 -7 92 -17 28 -19 54 -4
54 2 0 13 -21 25 -46z m-477 -17 c45 -48 55 -64 46 -78 -15 -23 -10 -34 6 -13
13 17 14 17 15 2 0 -9 -5 -20 -11 -23 -12 -8 -49 28 -49 47 1 8 6 5 15 -6 12
-16 15 -17 15 -4 0 20 -26 42 -40 33 -5 -3 -10 -13 -10 -21 0 -12 -4 -12 -20
-4 -15 8 -20 21 -20 50 0 47 19 53 53 17z m-75 -38 c2 -19 -2 -28 -15 -31 -32
-7 -53 3 -53 26 0 30 9 38 40 34 19 -2 26 -10 28 -29z m-435 -35 c-3 -9 0 -20
8 -25 11 -7 11 -9 -3 -9 -23 0 -32 18 -18 35 16 19 21 19 13 -1z m624 3 c7 -5
18 -18 24 -30 8 -16 3 -13 -16 8 -25 29 -26 29 -9 3 26 -44 13 -58 -54 -58
-60 0 -82 11 -82 42 0 24 21 23 27 -1 6 -23 42 -34 60 -19 7 6 13 23 13 38 0
28 11 33 37 17z m-827 -12 c0 -8 14 -30 30 -48 44 -51 37 -67 -10 -22 -37 36
-54 85 -30 85 6 0 10 -7 10 -15z m257 -22 c24 -50 58 -57 76 -15 l12 29 18
-23 c10 -14 13 -25 7 -29 -5 -3 -10 -33 -10 -66 0 -37 -4 -58 -10 -54 -6 3 -7
31 -3 67 5 50 4 60 -8 56 -8 -3 -18 -30 -25 -69 -10 -62 -11 -63 -18 -29 -5
19 -15 43 -24 53 -17 19 -3 24 16 5 8 -8 12 -8 12 -1 0 18 -25 32 -48 26 -13
-3 -36 3 -57 16 -40 23 -45 21 -13 -9 l22 -20 -33 0 c-21 0 -30 4 -25 11 3 6
1 15 -7 20 -11 6 -10 12 5 28 l18 20 33 -24 c31 -24 72 -35 60 -15 -3 5 -13 7
-23 4 -12 -4 -14 -3 -4 3 10 8 10 12 -2 23 -9 7 -13 16 -10 21 10 17 23 9 41
-28z m113 22 c0 -8 -2 -15 -4 -15 -2 0 -6 7 -10 15 -3 8 -1 15 4 15 6 0 10 -7
10 -15z m860 -8 c0 -14 -16 -39 -37 -61 -42 -41 -60 -30 -20 12 13 15 30 37
36 50 15 28 21 28 21 -1z m-920 -8 c0 -24 -23 -21 -28 4 -2 10 3 17 12 17 10
0 16 -9 16 -21z m318 4 c-10 -2 -28 -2 -40 0 -13 2 -5 4 17 4 22 1 32 -1 23
-4z m622 -82 c-16 -31 -110 -67 -110 -42 0 5 11 16 23 24 13 8 37 29 53 46 27
29 29 30 36 10 4 -11 4 -29 -2 -38z m-1226 3 c53 -48 54 -60 8 -49 -43 9 -82
48 -75 74 3 12 8 21 12 21 3 -1 28 -21 55 -46z m528 24 c-7 -7 -12 -8 -12 -2
0 14 12 26 19 19 2 -3 -1 -11 -7 -17z m55 0 c-3 -8 -6 -5 -6 6 -1 11 2 17 5
13 3 -3 4 -12 1 -19z m63 1 c0 -6 -4 -7 -10 -4 -5 3 -10 11 -10 16 0 6 5 7 10
4 6 -3 10 -11 10 -16z m201 -34 c6 13 7 5 3 -25 -10 -74 -24 -71 -22 6 1 41 3
55 6 34 4 -30 6 -32 13 -15z m-285 0 c-3 -9 -11 -13 -16 -10 -8 5 -7 11 1 21
14 18 24 11 15 -11z m58 -6 c-8 -13 -24 -1 -24 18 0 13 3 13 15 3 8 -7 12 -16
9 -21z m-436 5 c39 -6 43 -24 5 -24 -34 0 -100 18 -107 28 -5 8 39 6 102 -4z
m129 -16 c-3 -7 -5 -2 -5 12 0 14 2 19 5 13 2 -7 2 -19 0 -25z m623 23 c-51
-14 -68 -104 -20 -108 25 -3 25 -3 3 7 -13 5 -23 14 -23 20 0 18 36 -7 61 -41
l22 -31 -24 7 c-33 10 -69 34 -74 48 -2 7 -5 33 -8 60 l-5 47 47 -1 c35 -1 40
-3 21 -8z m145 -1 c-7 -12 -72 -30 -109 -30 -52 0 -11 24 52 31 31 3 58 7 60
8 2 0 1 -3 -3 -9z m-994 -48 c6 -20 19 -46 28 -56 15 -18 15 -18 -6 -7 -26 13
-38 33 -48 80 -10 45 10 33 26 -17z m414 38 c-3 -5 -11 -10 -16 -10 -6 0 -7 5
-4 10 3 6 11 10 16 10 6 0 7 -4 4 -10z m180 -1 c11 -17 -1 -21 -15 -4 -8 9 -8
15 -2 15 6 0 14 -5 17 -11z m411 -52 c-8 -20 -25 -41 -38 -48 -22 -12 -23 -11
-5 8 9 11 17 23 17 27 0 3 7 23 17 44 21 48 30 19 9 -31z m-671 44 c-11 -4
-23 -19 -26 -32 -6 -21 -7 -20 -8 9 -1 29 2 32 27 31 23 0 24 -2 7 -8z m354
-23 c-1 -29 -2 -30 -8 -9 -3 13 -15 28 -26 32 -17 6 -16 8 8 8 24 1 27 -2 26
-31z m459 -19 c-26 -17 -78 -27 -105 -20 -27 7 -26 8 17 19 25 7 56 21 70 31
25 20 25 20 28 -1 2 -11 -2 -25 -10 -29z m-1280 25 c12 -8 41 -21 65 -29 l42
-13 -50 -1 c-53 -1 -95 19 -95 45 0 18 10 18 38 -2z m302 -10 c0 -8 -4 -12
-10 -9 -5 3 -10 13 -10 21 0 8 5 12 10 9 6 -3 10 -13 10 -21z m661 -7 c-8 -8
-11 -7 -11 4 0 20 13 34 18 19 3 -7 -1 -17 -7 -23z m-783 17 c30 -9 28 -34 -3
-34 -14 0 -25 2 -25 4 0 2 -3 11 -6 20 -7 17 -1 19 34 10z m232 2 c0 -3 -4 -8
-10 -11 -5 -3 -10 -1 -10 4 0 6 5 11 10 11 6 0 10 -2 10 -4z m151 -29 c-8 -8
-11 -7 -11 4 0 20 13 34 18 19 3 -7 -1 -17 -7 -23z m77 16 c-4 -22 -22 -20
-26 1 -2 10 3 16 13 16 10 0 15 -7 13 -17z m62 -9 c0 -8 -4 -12 -10 -9 -5 3
-10 13 -10 21 0 8 5 12 10 9 6 -3 10 -13 10 -21z m160 16 c0 -5 -2 -10 -4 -10
-3 0 -8 5 -11 10 -3 6 -1 10 4 10 6 0 11 -4 11 -10z m248 -7 c-4 -23 -58 -31
-58 -9 0 15 14 24 43 25 12 1 17 -5 15 -16z m-598 -8 c0 -8 -7 -15 -16 -15
-14 0 -14 3 -4 15 7 8 14 15 16 15 2 0 4 -7 4 -15z m256 -12 c-7 -7 -26 7 -26
19 0 6 6 6 15 -2 9 -7 13 -15 11 -17z m-166 -37 c-14 -14 -24 0 -16 21 6 15 8
15 16 3 6 -9 5 -19 0 -24z m70 8 c0 -14 -12 -19 -23 -8 -9 9 4 35 14 28 5 -3
9 -12 9 -20z m620 8 c0 -11 -11 -24 -25 -30 -28 -13 -103 -16 -129 -6 -30 11
-5 24 47 24 29 0 63 7 77 14 14 8 26 14 28 15 1 1 2 -7 2 -17z m-1240 -9 c74
-6 89 -11 70 -23 -21 -14 -101 -12 -129 3 -30 15 -43 44 -15 32 11 -4 44 -10
74 -12z m260 12 c0 -3 -10 -10 -22 -16 -22 -9 -21 -9 4 -6 16 3 25 0 21 -5 -7
-12 -73 -41 -79 -35 -7 6 52 67 65 67 6 0 11 -2 11 -5z m230 -3 c0 -13 -12
-22 -22 -16 -10 6 -1 24 13 24 5 0 9 -4 9 -8z m191 -5 c-1 -12 -15 -9 -19 4
-3 6 1 10 8 8 6 -3 11 -8 11 -12z m-311 -1 c0 -2 -8 -10 -17 -17 -16 -13 -17
-12 -4 4 13 16 21 21 21 13z m55 -6 c-3 -5 -10 -10 -16 -10 -5 0 -9 5 -9 10 0
6 7 10 16 10 8 0 12 -4 9 -10z m325 0 c0 -5 -4 -10 -9 -10 -6 0 -13 5 -16 10
-3 6 1 10 9 10 9 0 16 -4 16 -10z m51 -7 c13 -16 12 -17 -3 -4 -17 13 -22 21
-14 21 2 0 10 -8 17 -17z m-480 -32 c-12 -21 -56 -39 -68 -27 -4 3 3 6 13 6
26 0 44 19 44 44 0 14 3 17 11 9 8 -8 8 -17 0 -32z m549 -18 c15 -8 19 -13 9
-13 -30 0 -68 48 -51 65 4 4 9 -4 12 -17 3 -12 17 -28 30 -35z m-595 27 c-10
-11 -22 -20 -28 -20 -5 0 1 9 14 20 31 25 37 25 14 0z m629 -19 c-3 -3 -15 6
-27 18 l-22 24 27 -19 c14 -10 24 -21 22 -23z m-511 3 c-4 -10 -9 -12 -15 -6
-12 12 -1 35 12 27 5 -3 6 -13 3 -21z m64 0 c-9 -9 -28 6 -21 18 4 6 10 6 17
-1 6 -6 8 -13 4 -17z m63 5 c0 -18 -2 -19 -15 -9 -15 12 -12 30 6 30 5 0 9
-10 9 -21z m65 -9 c-5 -8 -11 -8 -17 -2 -6 6 -7 16 -3 22 5 8 11 8 17 2 6 -6
7 -16 3 -22z m69 21 c3 -5 -1 -14 -9 -21 -13 -10 -15 -9 -15 9 0 21 14 28 24
12z m60 -12 c-3 -5 -10 -7 -15 -3 -5 3 -7 10 -3 15 3 5 10 7 15 3 5 -3 7 -10
3 -15z m61 -9 c-6 -9 -9 -9 -16 1 -10 17 0 34 13 21 6 -6 7 -16 3 -22z m-736
7 c63 7 77 -11 25 -33 -55 -23 -134 -5 -134 32 0 9 8 10 31 4 16 -5 52 -6 78
-3z m120 4 c9 -6 10 -10 2 -16 -15 -8 -41 1 -41 15 0 12 20 13 39 1z m871 0
c0 -15 -19 -23 -38 -16 -14 5 -14 7 -2 15 19 12 40 13 40 1z m193 -11 c-8 -32
-75 -47 -125 -29 -59 21 -47 34 32 34 38 1 72 4 76 8 14 13 22 7 17 -13z
m-1027 -27 c7 -10 14 -26 14 -35 0 -27 -55 -24 -74 4 -18 26 -20 38 -6 38 6 0
10 -6 10 -14 0 -19 28 -28 48 -17 16 9 16 10 0 16 -10 4 -18 11 -18 16 0 14
12 10 26 -8z m164 1 c0 -8 -4 -12 -10 -9 -5 3 -10 10 -10 16 0 5 5 9 10 9 6 0
10 -7 10 -16z m65 -14 c-5 -8 -11 -8 -17 -2 -6 6 -7 16 -3 22 5 8 11 8 17 2 6
-6 7 -16 3 -22z m65 4 c0 -8 -4 -12 -10 -9 -5 3 -10 13 -10 21 0 8 5 12 10 9
6 -3 10 -13 10 -21z m56 -1 c-10 -10 -19 5 -10 18 6 11 8 11 12 0 2 -7 1 -15
-2 -18z m74 6 c0 -5 -4 -9 -10 -9 -5 0 -10 7 -10 16 0 8 5 12 10 9 6 -3 10
-10 10 -16z m59 -5 c-14 -18 -24 -11 -15 11 3 9 11 13 16 10 8 -5 7 -11 -1
-21z m66 -4 c-5 -8 -11 -8 -17 -2 -6 6 -7 16 -3 22 5 8 11 8 17 2 6 -6 7 -16
3 -22z m65 21 c0 -6 -4 -13 -10 -16 -5 -3 -10 1 -10 9 0 9 5 16 10 16 6 0 10
-4 10 -9z m156 -13 c-15 -8 -16 -12 -5 -19 20 -13 26 -11 49 13 24 26 27 12 4
-20 -19 -27 -74 -31 -74 -5 0 19 30 56 39 47 3 -3 -3 -10 -13 -16z m-876 -30
c-19 -15 -32 -18 -64 -12 -67 10 -78 23 -21 24 28 0 61 7 75 15 34 18 41 -2
10 -27z m1060 14 c56 3 52 -9 -6 -22 -48 -11 -81 -4 -94 20 -15 28 -13 30 20
13 19 -9 50 -14 80 -11z m-855 8 c-3 -5 -20 -10 -36 -10 -18 0 -28 4 -24 10 3
6 20 10 36 10 18 0 28 -4 24 -10z m620 0 c4 -6 -6 -10 -24 -10 -16 0 -33 5
-36 10 -4 6 6 10 24 10 16 0 33 -4 36 -10z m-583 -32 c-15 -15 -26 -4 -18 18
5 13 9 15 18 6 9 -9 9 -15 0 -24z m508 6 c0 -16 -16 -19 -25 -4 -8 13 4 32 16
25 5 -4 9 -13 9 -21z m-446 0 c3 -8 2 -12 -4 -9 -6 3 -10 10 -10 16 0 14 7 11
14 -7z m66 -10 c0 -14 -12 -19 -23 -8 -9 9 4 35 14 28 5 -3 9 -12 9 -20z m63
-7 c-3 -5 -10 -4 -15 1 -6 6 -7 16 -3 22 6 9 9 9 16 -1 4 -7 5 -17 2 -22z m64
7 c-9 -9 -28 6 -21 18 4 6 10 6 17 -1 6 -6 8 -13 4 -17z m55 -6 c-9 -9 -12 -7
-12 12 0 19 3 21 12 12 9 -9 9 -15 0 -24z m68 -2 c-14 -14 -24 0 -16 21 6 15
8 15 16 3 6 -9 5 -19 0 -24z m56 7 c-10 -10 -19 5 -10 18 6 11 8 11 12 0 2 -7
1 -15 -2 -18z m-496 13 c0 -11 -33 -36 -46 -36 -12 0 -12 4 -4 20 9 17 50 30
50 16z m660 -16 c8 -16 8 -20 -3 -20 -8 0 -22 9 -32 20 -18 19 -17 20 3 20 12
0 26 -9 32 -20z m-832 -17 c-13 -17 -79 -17 -101 0 -15 10 -7 12 47 12 51 0
62 -2 54 -12z m71 1 c3 -2 -8 -18 -24 -34 -36 -38 -102 -43 -123 -9 -12 19
-11 20 8 14 28 -9 90 13 90 31 0 11 6 13 23 8 12 -3 24 -8 26 -10z m126 6 c3
-5 -1 -10 -10 -10 -9 0 -13 5 -10 10 3 6 8 10 10 10 2 0 7 -4 10 -10z m580 0
c3 -5 1 -10 -4 -10 -6 0 -11 5 -11 10 0 6 2 10 4 10 3 0 8 -4 11 -10z m165
-12 c13 -17 29 -23 58 -23 35 0 39 -2 31 -17 -7 -13 -22 -18 -52 -18 -34 0
-48 6 -70 29 -32 34 -33 38 -9 44 9 3 19 5 20 6 2 0 12 -9 22 -21z m113 5
c-22 -17 -88 -17 -101 0 -8 10 3 12 54 12 54 0 62 -2 47 -12z m-940 -17 c12
-9 14 -16 7 -21 -12 -7 -40 11 -40 26 0 13 12 11 33 -5z m757 5 c0 -15 -28
-33 -40 -26 -7 5 -5 12 7 21 21 16 33 18 33 5z m-775 -31 c20 -18 23 -19 35
-5 19 22 39 18 46 -9 4 -17 11 -23 22 -19 15 4 15 3 2 -6 -13 -9 -13 -11 3
-11 9 0 17 -4 17 -10 0 -13 -11 -12 -32 4 -10 7 -18 20 -18 29 0 27 -19 29
-44 4 l-25 -25 -8 25 c-8 24 -10 24 -23 7 -8 -10 -10 -15 -3 -11 6 4 14 3 18
-3 3 -5 0 -10 -7 -11 -7 0 -3 -4 10 -9 12 -5 22 -14 22 -20 0 -6 -5 -8 -10 -5
-6 4 -18 1 -27 -7 -14 -10 -15 -10 -9 0 4 7 2 26 -4 42 -12 29 -8 60 7 60 3 0
16 -9 28 -20z m803 8 c8 -8 8 -17 1 -30 -5 -10 -7 -24 -3 -30 5 -7 3 -8 -6 -3
-10 6 -12 3 -7 -14 4 -18 3 -20 -8 -11 -8 7 -19 9 -24 5 -7 -3 -8 0 -5 9 3 9
12 16 20 16 8 0 11 6 7 17 -5 12 -3 14 8 8 12 -7 12 -6 1 6 -11 12 -15 11 -23
-4 -10 -17 -12 -16 -36 3 -14 11 -29 17 -34 14 -5 -3 -9 0 -9 5 0 16 21 13 40
-4 15 -14 19 -13 35 5 21 23 27 24 43 8z m-690 -17 c3 -8 -1 -12 -9 -9 -7 2
-15 10 -17 17 -3 8 1 12 9 9 7 -2 15 -10 17 -17z m77 -3 c6 -4 -5 -8 -24 -8
-33 0 -34 1 -15 14 10 8 21 11 24 8 3 -4 10 -10 15 -14z m58 15 c-7 -2 -19 -2
-25 0 -7 3 -2 5 12 5 14 0 19 -2 13 -5z m55 0 c-10 -2 -18 -11 -18 -19 0 -16
-2 -17 -25 -7 -15 5 -14 8 6 19 13 7 31 13 39 12 10 0 10 -2 -2 -5z m47 -3
c-3 -5 -10 -10 -16 -10 -5 0 -9 5 -9 10 0 6 7 10 16 10 8 0 12 -4 9 -10z m45
6 c0 -11 -19 -15 -25 -6 -3 5 1 10 9 10 9 0 16 -2 16 -4z m40 -6 c0 -5 -4 -10
-9 -10 -6 0 -13 5 -16 10 -3 6 1 10 9 10 9 0 16 -4 16 -10z m55 -2 c18 -8 22
-14 13 -20 -19 -12 -28 -10 -28 6 0 8 -8 17 -17 19 -10 3 -13 5 -6 6 7 0 24
-4 38 -11z m48 5 c-7 -2 -19 -2 -25 0 -7 3 -2 5 12 5 14 0 19 -2 13 -5z m78 0
c-11 -5 -11 -7 0 -14 9 -6 2 -8 -21 -8 -19 1 -27 3 -17 6 9 2 15 8 13 12 -3 4
5 7 17 8 12 0 16 -1 8 -4z m57 -5 c-2 -6 -10 -14 -16 -16 -7 -2 -10 2 -6 12 7
18 28 22 22 4z m-709 -136 c1 -13 5 -20 11 -17 6 4 8 14 6 23 -7 21 10 50 21
38 4 -5 2 -11 -4 -13 -7 -3 -13 -9 -13 -14 0 -6 5 -7 11 -3 6 3 3 -8 -6 -26
-12 -24 -15 -45 -9 -88 3 -31 4 -55 1 -52 -4 5 -77 243 -77 254 0 3 8 6 18 8
13 3 20 -7 29 -42 6 -25 12 -55 12 -68z m101 108 c0 -5 -7 -10 -16 -10 -8 0
-12 5 -9 10 3 6 10 10 16 10 5 0 9 -4 9 -10z m273 3 c-7 -2 -21 -2 -30 0 -10
3 -4 5 12 5 17 0 24 -2 18 -5z m60 0 c-7 -2 -21 -2 -30 0 -10 3 -4 5 12 5 17
0 24 -2 18 -5z m60 0 c-7 -2 -21 -2 -30 0 -10 3 -4 5 12 5 17 0 24 -2 18 -5z
m211 -28 c-23 -17 -34 -19 -34 -5 0 6 8 10 18 10 15 0 15 2 2 11 -13 9 -12 10
3 5 10 -3 17 0 18 7 0 8 2 8 6 -1 3 -7 -3 -20 -13 -27z m51 25 c3 -5 -1 -10
-9 -10 -9 0 -16 5 -16 10 0 6 4 10 9 10 6 0 13 -4 16 -10z m135 -7 c0 -11 -70
-246 -75 -251 -10 -10 -5 34 16 149 20 103 24 116 41 112 10 -3 18 -7 18 -10z
m-941 -68 c12 -42 19 -81 15 -87 -4 -6 -13 13 -21 43 -7 30 -22 66 -33 80 -10
15 -16 29 -13 33 18 18 32 -1 52 -69z m274 68 c-7 -2 -21 -2 -30 0 -10 3 -4 5
12 5 17 0 24 -2 18 -5z m420 0 c-7 -2 -21 -2 -30 0 -10 3 -4 5 12 5 17 0 24
-2 18 -5z m297 3 c0 -2 -11 -23 -24 -47 -13 -24 -27 -61 -31 -83 -4 -25 -10
-35 -16 -29 -7 7 -2 37 13 87 17 58 26 76 40 76 10 0 18 -2 18 -4z m-850 -20
c0 -2 -7 -6 -15 -10 -8 -3 -15 -1 -15 4 0 6 7 10 15 10 8 0 15 -2 15 -4z m438
-116 c2 -78 -1 -110 -8 -105 -6 4 -10 25 -8 48 1 23 1 66 0 95 l-2 52 -95 0
-95 0 0 -94 c0 -53 -4 -98 -10 -101 -10 -6 -15 206 -6 216 2 2 53 3 113 2
l108 -2 3 -111z m242 110 c0 -5 -7 -7 -15 -4 -8 4 -15 8 -15 10 0 2 7 4 15 4
8 0 15 -4 15 -10z m-550 -9 c0 -5 11 -12 25 -15 25 -6 25 -8 25 -112 0 -94 -2
-105 -16 -100 -13 5 -15 2 -11 -14 3 -11 1 -20 -4 -20 -5 0 -10 53 -11 118
l-2 117 -3 -107 c-3 -87 -7 -108 -18 -108 -12 0 -15 22 -15 125 0 104 2 125
15 125 8 0 15 -4 15 -9z m425 -113 c0 -64 -3 -119 -7 -123 -20 -20 -28 15 -28
126 0 109 2 120 18 117 15 -3 17 -17 17 -120z m-555 102 c0 -5 -8 -10 -17 -10
-15 0 -16 2 -3 10 19 12 20 12 20 0z m56 -4 c8 -8 14 -23 13 -33 0 -15 -2 -14
-11 5 -6 12 -18 22 -26 22 -12 0 -12 -4 3 -20 26 -28 7 -49 -30 -32 -27 13
-34 42 -10 42 9 0 18 7 21 15 8 19 21 19 40 1z m578 -1 c3 -8 12 -15 20 -15 7
0 16 -10 18 -22 4 -20 0 -23 -28 -23 -43 0 -51 10 -29 35 15 16 15 20 3 20 -8
0 -20 -10 -26 -22 -9 -19 -11 -20 -11 -5 -2 36 41 62 53 32z m46 -1 c0 -2 -7
-4 -15 -4 -8 0 -15 4 -15 10 0 5 7 7 15 4 8 -4 15 -8 15 -10z m-170 -119 c0
-69 -3 -125 -7 -125 -5 0 -8 48 -7 107 0 103 0 104 -3 16 -5 -128 -23 -119
-23 11 0 101 3 112 33 115 4 1 7 -55 7 -124z m211 108 c3 -18 5 -63 2 -63 -1
0 -7 10 -14 21 -8 15 -8 19 0 15 15 -10 14 7 -1 22 -9 9 -9 12 0 12 7 0 13 -3
13 -7z m-524 -145 c-2 -29 -3 -8 -3 47 0 55 1 79 3 53 2 -26 2 -71 0 -100z
m113 57 l0 -85 -30 0 -30 0 0 85 0 85 30 0 30 0 0 -85z m90 -1 l0 -85 -27 3
c-28 3 -28 4 -31 86 l-3 82 31 0 30 0 0 -86z m57 -56 c-2 -29 -3 -8 -3 47 0
55 1 79 3 53 2 -26 2 -71 0 -100z m-390 55 c0 -27 -2 -36 -4 -20 -3 15 -9 27
-14 27 -6 0 -6 8 1 20 15 29 18 26 17 -27z m534 8 c-5 -3 -11 -17 -13 -31 -3
-14 -5 -3 -5 24 0 44 1 48 13 31 8 -10 10 -21 5 -24z m-619 -20 c-9 -6 -8 -12
8 -26 11 -10 20 -23 20 -29 0 -6 -4 -5 -9 3 -6 10 -10 10 -16 1 -6 -9 -10 -9
-16 1 -7 11 -9 10 -9 -3 0 -9 8 -18 18 -21 16 -4 16 -4 -2 -12 -12 -5 -21 -3
-27 6 -14 23 -10 37 12 44 16 5 18 10 8 21 -6 8 -8 14 -5 14 4 0 0 7 -8 16 -9
8 -13 20 -10 26 4 6 15 1 28 -11 16 -17 18 -24 8 -30z m721 24 c-3 -8 -10 -15
-17 -15 -7 0 -6 -3 2 -9 11 -6 10 -10 -4 -15 -13 -5 -15 -9 -7 -14 8 -5 9 -13
3 -22 -8 -12 -10 -11 -10 5 -1 20 -1 20 -15 1 -8 -11 -15 -15 -15 -9 0 5 9 18
20 28 14 13 17 22 10 29 -6 6 -4 16 6 28 19 20 36 15 27 -7z m-647 -72 c6 -41
6 -42 -31 -58 -21 -8 -41 -13 -44 -9 -10 9 30 33 45 27 12 -4 12 0 4 23 -6 16
-16 34 -22 41 -7 9 -7 17 2 29 19 22 37 0 46 -53z m589 27 c-7 -8 -17 -27 -20
-43 -6 -21 -4 -26 7 -22 15 6 46 -21 36 -30 -3 -3 -21 2 -41 10 -42 17 -46 35
-22 91 13 31 16 33 34 22 17 -11 18 -14 6 -28z m-755 -25 c0 -16 -6 -25 -15
-25 -16 0 -19 9 -9 34 9 25 24 19 24 -9z m894 9 c10 -25 7 -34 -9 -34 -9 0
-15 9 -15 25 0 28 15 34 24 9z m67 -11 c13 -16 12 -17 -3 -4 -10 7 -18 15 -18
17 0 8 8 3 21 -13z m-141 -13 c0 -20 -25 -38 -36 -27 -5 4 25 47 33 47 2 0 3
-9 3 -20z m-805 -37 c-3 -8 -5 -19 -5 -24 0 -5 -4 -9 -9 -9 -5 0 -8 10 -7 23
0 13 7 24 14 24 7 0 10 -7 7 -14z m857 -6 c-4 -14 -7 -16 -13 -5 -12 19 -11
25 5 25 8 0 11 -8 8 -20z m-502 2 c0 -5 -11 -8 -25 -7 -14 1 -25 5 -25 9 0 4
11 7 25 7 14 0 25 -4 25 -9z m30 1 c0 -5 -4 -10 -10 -10 -5 0 -10 5 -10 10 0
6 5 10 10 10 6 0 10 -4 10 -10z m60 0 c0 -5 -11 -10 -25 -10 -14 0 -25 5 -25
10 0 6 11 10 25 10 14 0 25 -4 25 -10z m30 0 c0 -5 -4 -10 -10 -10 -5 0 -10 5
-10 10 0 6 5 10 10 10 6 0 10 -4 10 -10z m60 1 c0 -4 -11 -8 -25 -9 -14 -1
-25 2 -25 7 0 5 11 9 25 9 14 0 25 -3 25 -7z m520 -1 c8 -5 11 -10 5 -10 -5 0
-17 5 -25 10 -8 5 -10 10 -5 10 6 0 17 -5 25 -10z m-990 -20 c0 -6 -11 -10
-25 -10 -14 0 -25 4 -25 8 0 4 11 9 25 10 14 1 25 -3 25 -8z m740 0 c0 -5 -7
-10 -15 -10 -8 0 -15 5 -15 10 0 6 7 10 15 10 8 0 15 -4 15 -10z m-580 -17 c0
-14 -2 -15 -9 -4 -7 11 -9 11 -14 0 -4 -10 -6 -9 -6 4 -1 9 6 17 14 17 8 0 15
-8 15 -17z m127 11 c-3 -3 -12 -4 -19 -1 -8 3 -5 6 6 6 11 1 17 -2 13 -5z m29
-10 c-3 -9 -6 -27 -6 -40 0 -17 -6 -24 -19 -24 -14 0 -19 6 -18 20 1 22 13 27
20 8 2 -7 3 -5 1 5 -3 24 5 47 18 47 6 0 7 -7 4 -16z m64 6 c0 -5 -11 -10 -25
-10 -14 0 -25 5 -25 10 0 6 11 10 25 10 14 0 25 -4 25 -10z m30 1 c0 -5 8 -18
18 -27 16 -17 16 -18 -2 -11 -15 6 -17 4 -13 -13 3 -11 1 -20 -4 -20 -5 0 -9
11 -9 24 0 13 -3 31 -6 40 -3 9 -1 16 5 16 6 0 11 -4 11 -9z m37 3 c-3 -3 -12
-4 -19 -1 -8 3 -5 6 6 6 11 1 17 -2 13 -5z m133 -11 c0 -14 -2 -15 -9 -4 -7
11 -9 11 -14 0 -4 -10 -6 -9 -6 4 -1 9 6 17 14 17 8 0 15 -8 15 -17z m-549 -7
c17 10 9 -5 -13 -26 -12 -11 -26 -20 -31 -20 -5 0 1 9 14 20 17 14 19 18 7 14
-10 -3 -18 -2 -18 4 0 13 24 22 28 10 2 -4 8 -6 13 -2z m184 4 c3 -5 1 -10 -4
-10 -6 0 -11 5 -11 10 0 6 2 10 4 10 3 0 8 -4 11 -10z m295 0 c0 -5 -5 -10
-11 -10 -5 0 -7 5 -4 10 3 6 8 10 11 10 2 0 4 -4 4 -10z m-292 -28 c-16 -2
-28 -10 -28 -18 0 -10 -12 -14 -40 -14 -28 0 -40 4 -40 14 0 22 20 30 21 9 0
-16 1 -16 9 2 7 18 8 19 15 3 9 -23 25 -23 25 0 0 15 6 18 33 13 31 -5 31 -6
5 -9z m167 7 c4 -6 4 -13 0 -17 -3 -3 -10 0 -15 8 -9 13 -10 13 -10 0 0 -12
-2 -13 -9 -1 -7 11 -9 11 -13 0 -3 -8 -9 -11 -13 -7 -12 12 5 28 30 28 13 0
27 -5 30 -11z m155 -29 c4 0 11 8 15 18 7 16 8 15 15 -3 8 -18 9 -18 9 -2 1
21 21 13 21 -9 0 -10 -12 -14 -40 -14 -37 0 -40 2 -39 28 2 23 2 24 6 5 2 -13
8 -23 13 -23z m-37 23 c-7 -2 -19 -2 -25 0 -7 3 -2 5 12 5 14 0 19 -2 13 -5z
m-273 -23 c0 -5 -7 -10 -16 -10 -8 0 -12 5 -9 10 3 6 10 10 16 10 5 0 9 -4 9
-10z m30 0 c0 -5 -5 -10 -11 -10 -5 0 -7 5 -4 10 3 6 8 10 11 10 2 0 4 -4 4
-10z m205 0 c3 -5 1 -10 -4 -10 -6 0 -11 5 -11 10 0 6 2 10 4 10 3 0 8 -4 11
-10z m40 0 c3 -5 -1 -10 -9 -10 -9 0 -16 5 -16 10 0 6 4 10 9 10 6 0 13 -4 16
-10z m-305 -30 c0 -5 -4 -10 -10 -10 -5 0 -10 5 -10 10 0 6 5 10 10 10 6 0 10
-4 10 -10z m30 1 c0 -6 -4 -13 -10 -16 -5 -3 -10 1 -10 9 0 9 5 16 10 16 6 0
10 -4 10 -9z m240 -3 c0 -5 -16 -9 -35 -9 -19 -1 -40 -2 -47 -3 -6 -1 -13 5
-16 12 -3 9 10 11 47 10 28 -2 51 -6 51 -10z"/>
<path d="M1025 2000 c-3 -5 1 -10 10 -10 9 0 13 5 10 10 -3 6 -8 10 -10 10 -2
0 -7 -4 -10 -10z"/>
<path d="M1060 1990 c0 -5 5 -10 11 -10 5 0 7 5 4 10 -3 6 -8 10 -11 10 -2 0
-4 -4 -4 -10z"/>
<path d="M1185 2000 c-4 -6 -10 -8 -15 -5 -5 3 -11 1 -15 -5 -7 -12 11 -12 39
-1 13 5 16 10 9 14 -7 4 -14 3 -18 -3z"/>
<path d="M1295 1381 c-6 -11 9 -23 19 -14 9 9 7 23 -3 23 -6 0 -12 -4 -16 -9z"/>
<path d="M1337 1333 c-11 -13 -17 -26 -15 -29 7 -7 40 34 37 44 -2 6 -12 -1
-22 -15z"/>
<path d="M1250 1335 c0 -8 5 -15 10 -15 6 0 10 7 10 15 0 8 -4 15 -10 15 -5 0
-10 -7 -10 -15z"/>
<path d="M1490 1217 c-9 -15 -9 -17 1 -12 8 5 10 4 5 -3 -4 -6 -13 -9 -20 -6
-17 6 -31 -12 -16 -21 12 -8 50 12 50 27 0 6 8 17 18 24 16 12 15 13 -4 11
-12 0 -27 -10 -34 -20z"/>
<path d="M890 1331 c0 -6 4 -13 10 -16 6 -3 7 1 4 9 -7 18 -14 21 -14 7z"/>
<path d="M1210 1374 c0 -8 5 -12 10 -9 6 3 10 10 10 16 0 5 -4 9 -10 9 -5 0
-10 -7 -10 -16z"/>
<path d="M1104 1264 c3 -9 6 -18 6 -20 0 -3 5 -2 10 1 16 10 12 35 -6 35 -11
0 -14 -5 -10 -16z"/>
<path d="M943 615 c0 -33 2 -45 4 -27 2 18 2 45 0 60 -2 15 -4 0 -4 -33z"/>
<path d="M800 721 c0 -5 5 -13 10 -16 6 -3 10 -2 10 4 0 5 -4 13 -10 16 -5 3
-10 2 -10 -4z"/>
<path d="M1417 723 c-4 -3 -7 -11 -7 -17 0 -6 5 -5 12 2 6 6 9 14 7 17 -3 3
-9 2 -12 -2z"/>
<path d="M3343 1874 c-174 -38 -379 -196 -489 -377 -74 -123 -108 -208 -100
-251 6 -33 54 -96 73 -96 5 0 14 29 21 66 37 194 273 491 467 587 76 38 155
51 197 34 52 -22 63 -42 62 -116 -1 -122 -84 -229 -229 -298 -41 -19 -75 -39
-75 -43 0 -5 19 -11 43 -15 76 -13 137 -101 137 -198 0 -98 -82 -219 -187
-274 -129 -69 -294 -87 -386 -43 -93 44 -114 120 -52 186 19 20 35 38 35 40 0
6 -76 24 -102 24 -39 0 -78 -60 -78 -118 0 -53 20 -94 62 -125 97 -73 198 -96
346 -79 288 33 474 182 476 382 1 58 -3 72 -32 117 -18 28 -50 63 -72 78 -22
15 -40 29 -40 30 0 2 24 14 54 29 152 74 237 231 192 351 -42 109 -152 147
-323 109z"/>
<path d="M6186 1798 c-9 -67 -63 -204 -133 -338 -137 -262 -373 -622 -414
-633 -42 -11 -8 -24 78 -30 48 -4 156 -21 238 -38 83 -17 184 -38 225 -46 91
-19 290 -21 345 -5 51 15 102 59 111 96 8 33 10 33 -101 0 -85 -25 -296 -23
-480 5 -77 12 -182 24 -232 28 -51 3 -93 8 -93 10 0 2 32 41 71 86 192 221
442 621 490 786 l13 43 -46 44 c-26 24 -51 44 -56 44 -5 0 -13 -24 -16 -52z"/>
<path d="M3210 1608 c-91 -189 -182 -410 -219 -535 -20 -66 -20 -75 -7 -101
15 -28 44 -59 49 -51 2 2 20 49 42 104 60 157 157 364 241 518 43 78 77 151
76 161 -1 23 -60 86 -80 86 -8 0 -51 -77 -102 -182z"/>
<path d="M4547 1753 c-2 -5 -10 -26 -17 -48 -7 -22 -26 -70 -42 -106 -28 -63
-32 -67 -96 -98 -85 -41 -109 -58 -96 -71 6 -6 28 -1 63 15 29 14 57 25 63 25
5 0 -6 -28 -25 -63 -19 -35 -51 -101 -72 -148 -75 -172 -207 -326 -261 -305
-21 8 -17 36 16 126 37 100 37 120 4 154 -41 40 -60 34 -74 -24 -20 -83 -145
-231 -206 -243 -31 -6 -61 16 -69 51 -8 40 28 148 73 218 103 158 233 193 257
68 7 -38 35 -48 35 -11 -1 251 -354 128 -456 -160 -29 -83 -30 -124 -4 -178
23 -47 53 -65 110 -65 42 0 111 44 162 104 l27 31 1 -40 c0 -72 48 -112 119
-99 27 5 55 26 113 84 l77 76 -1 -60 c-1 -53 2 -62 26 -83 15 -13 34 -23 42
-23 34 0 92 34 142 83 l52 51 0 -45 c0 -62 18 -84 67 -83 56 2 94 25 180 111
62 62 75 71 69 50 -3 -15 -9 -48 -13 -73 -5 -41 -3 -49 18 -65 34 -26 59 -24
59 4 0 34 22 137 29 137 3 0 20 -28 36 -62 39 -81 69 -103 140 -102 66 1 121
31 188 102 48 52 137 182 137 201 0 25 -27 8 -52 -32 -102 -159 -235 -232
-325 -177 -67 41 -89 116 -55 191 11 24 49 72 84 105 109 104 138 106 73 4
-43 -68 -44 -102 -6 -141 16 -16 35 -29 43 -28 7 0 40 54 73 119 57 113 59
119 45 145 -8 15 -24 34 -36 42 -19 12 -28 11 -74 -6 -29 -11 -75 -39 -103
-62 -27 -24 -48 -38 -46 -33 2 5 41 82 87 171 48 95 82 174 82 192 0 20 -9 37
-31 55 -17 14 -36 26 -42 26 -7 0 -25 -35 -41 -78 -16 -42 -74 -173 -130 -290
-111 -236 -189 -349 -280 -409 -119 -80 -112 -15 26 239 63 116 67 129 56 153
-10 23 -64 62 -73 53 -2 -2 -29 -59 -61 -128 -86 -184 -167 -300 -237 -337
-99 -51 -68 76 97 406 82 164 74 156 188 167 65 7 68 6 77 -17 5 -13 18 -32
29 -42 20 -18 21 -17 61 66 23 46 41 87 41 91 0 12 -73 86 -85 86 -7 0 -17
-25 -24 -60 -7 -33 -15 -60 -19 -61 -11 -1 -62 -7 -115 -14 l-47 -6 21 44 c27
56 20 91 -24 117 -35 22 -44 24 -50 13z"/>
<path d="M6506 1708 c-10 -35 -36 -165 -36 -176 0 -17 38 -72 49 -72 10 0 81
151 81 171 0 16 -67 89 -82 89 -5 0 -10 -6 -12 -12z"/>
<path d="M7216 1619 c-19 -99 -19 -100 1 -126 10 -15 24 -28 29 -30 11 -4 84
139 84 166 0 20 -64 91 -83 91 -7 0 -20 -39 -31 -101z"/>
<path d="M8593 1463 c-19 -21 -69 -89 -111 -152 -42 -62 -91 -132 -109 -155
-17 -22 -45 -64 -62 -93 -47 -80 -130 -133 -149 -96 -14 26 8 101 73 247 30
69 55 131 55 138 -1 30 -74 89 -90 72 -5 -5 -23 -52 -41 -104 -39 -117 -64
-168 -122 -246 -51 -70 -102 -112 -138 -116 -50 -6 -35 70 52 265 27 60 49
116 49 125 -1 31 -71 95 -87 79 -5 -5 -53 -139 -103 -289 -49 -146 -49 -203 1
-241 23 -16 31 -17 70 -7 34 9 60 28 112 81 38 38 69 69 71 69 1 0 0 -15 -2
-34 -6 -51 15 -105 45 -117 38 -14 99 7 148 52 23 21 45 39 48 39 2 0 8 -11
11 -24 3 -14 21 -35 39 -48 44 -31 158 -33 199 -3 55 42 62 67 63 225 1 160 6
181 68 262 38 50 37 58 -13 92 -34 22 -38 21 -77 -21z m-74 -194 c-6 -21 -7
-83 -3 -159 l6 -126 -28 -33 c-24 -29 -32 -32 -62 -27 -19 3 -45 15 -58 27
-53 50 -9 124 68 117 27 -2 38 0 38 10 0 19 -28 70 -41 74 -14 5 -6 21 48 106
38 60 48 63 32 11z"/>
<path d="M6364 1333 c-123 -264 -147 -330 -137 -389 16 -95 122 -73 243 50 30
31 57 56 60 56 3 0 6 -15 7 -34 5 -110 113 -162 251 -121 36 11 69 32 110 70
l58 54 0 -51 c0 -127 118 -108 255 41 l64 69 20 -61 c16 -50 28 -68 63 -94 37
-28 52 -33 101 -33 68 0 125 31 184 101 88 102 115 219 77 333 -28 82 -55 106
-119 106 -108 0 -229 -95 -292 -229 -48 -100 -137 -202 -207 -236 -85 -42 -65
47 63 275 30 54 55 107 55 118 0 22 -56 75 -73 69 -6 -2 -36 -57 -67 -123 -30
-66 -67 -140 -82 -165 -127 -213 -340 -270 -340 -91 0 126 148 322 243 322 32
0 38 -12 31 -57 -6 -45 15 -43 34 3 28 68 -17 122 -94 112 -107 -15 -224 -109
-294 -235 -67 -122 -211 -261 -248 -238 -28 18 -3 88 96 266 35 64 64 125 64
137 0 20 -52 72 -71 72 -5 0 -30 -44 -55 -97z m1290 41 c25 -10 18 -28 -17
-45 -33 -16 -55 -63 -44 -93 5 -12 14 -7 40 19 19 19 39 35 45 35 67 0 0 -195
-98 -284 -45 -40 -58 -46 -96 -46 -97 0 -123 99 -60 236 36 78 70 120 124 155
45 29 75 35 106 23z"/>
<path d="M1815 660 c-3 -6 1 -7 9 -4 18 7 21 14 7 14 -6 0 -13 -4 -16 -10z"/>
<path d="M1490 430 c-20 -6 -21 -8 -5 -8 11 0 29 3 40 8 25 11 -1 11 -35 0z"/>
<path d="M668 423 c7 -3 16 -2 19 1 4 3 -2 6 -13 5 -11 0 -14 -3 -6 -6z"/>
<path d="M1040 399 c0 -5 5 -7 10 -4 6 3 10 8 10 11 0 2 -4 4 -10 4 -5 0 -10
-5 -10 -11z"/>
<path d="M820 338 c-11 -12 -20 -26 -20 -30 0 -5 11 4 25 19 l26 28 -16 -39
c-20 -52 -18 -59 5 -16 32 59 21 81 -20 38z"/>
<path d="M875 338 c-4 -13 -6 -29 -5 -36 0 -8 -5 -21 -12 -29 -11 -14 -11 -15
2 -11 8 3 16 16 16 29 1 13 5 32 9 42 4 10 5 20 3 23 -3 3 -9 -6 -13 -18z"/>
<path d="M1141 333 c-10 -26 -10 -27 4 -9 8 11 15 23 15 28 0 15 -7 8 -19 -19z"/>
<path d="M965 313 c-8 -20 -14 -38 -11 -40 2 -2 9 10 16 26 6 17 19 31 28 33
15 3 15 4 0 10 -14 6 -21 -1 -33 -29z"/>
<path d="M1025 320 c-17 -34 -19 -50 -5 -50 6 0 9 3 9 8 -1 4 -1 14 0 22 1 12
3 13 10 1 7 -11 10 -11 17 0 4 7 3 14 -4 17 -6 2 -8 10 -5 18 10 26 -6 15 -22
-16z"/>
<path d="M900 305 c-6 -8 -10 -20 -7 -27 4 -8 6 -7 6 4 1 9 9 22 19 27 9 6 12
11 6 11 -6 0 -17 -7 -24 -15z"/>
<path d="M982 295 c-6 -14 -7 -25 -2 -25 9 0 25 39 18 46 -3 2 -10 -7 -16 -21z"/>
<path d="M1163 303 c-3 -10 -8 -22 -10 -28 -3 -5 3 -1 11 9 16 20 21 36 11 36
-3 0 -8 -8 -12 -17z"/>
<path d="M1196 301 c-15 -16 -15 -19 -1 -31 13 -11 14 -10 9 5 -5 12 -1 23 11
31 10 8 14 14 8 14 -5 0 -17 -8 -27 -19z"/>
<path d="M1232 295 c-6 -14 -8 -25 -3 -25 8 0 23 41 17 47 -1 2 -8 -8 -14 -22z"/>
<path d="M1272 308 c-7 -7 -12 -19 -11 -27 0 -10 4 -7 10 7 5 13 13 20 19 17
5 -3 10 -1 10 4 0 14 -13 14 -28 -1z"/>
<path d="M1321 313 c-1 -6 -4 -20 -7 -30 -5 -17 -5 -17 6 0 6 10 9 23 6 30 -3
9 -5 9 -5 0z"/>
<path d="M1345 300 c-4 -12 -5 -24 -2 -27 3 -2 8 5 12 17 4 12 5 24 2 27 -3 2
-8 -5 -12 -17z"/>
<path d="M1387 313 c-3 -5 -1 -17 4 -28 7 -17 8 -17 8 8 1 27 -4 34 -12 20z"/>
<path d="M925 289 c-4 -6 -5 -12 -2 -15 2 -3 7 2 10 11 7 17 1 20 -8 4z"/>
<path d="M1138 253 c7 -3 16 -2 19 1 4 3 -2 6 -13 5 -11 0 -14 -3 -6 -6z"/>
<path d="M1570 250 c-9 -6 -10 -10 -3 -10 6 0 15 5 18 10 8 12 4 12 -15 0z"/>
<path d="M1045 219 c-15 -6 -11 -8 18 -8 20 -1 37 1 37 3 0 9 -37 12 -55 5z"/>
</g>
</svg>
